<svg xmlns="http://www.w3.org/2000/svg" viewBox="0 0 483.24 407.66"><defs><style>.cls-1{fill:#5793ce;}.cls-2{fill:#c4d9e8;}.cls-3{fill:#d4ecff;}.cls-4{fill:#173d7a;}.cls-5{fill:#fff;}.cls-6{fill:#396caa;}.cls-7{fill:#d3d0cf;}.cls-8{fill:#f2f2f2;}.cls-9{fill:#ffc2b0;}.cls-10{fill:#ea9c92;}.cls-11{fill:#ff5063;}.cls-12{fill:#274f89;}.cls-13{fill:#f9324f;}</style></defs><title>Asset 1</title><g id="Layer_2" data-name="Layer 2"><g id="Layer_1-2" data-name="Layer 1"><g id="_06-28" data-name="06-28"><rect class="cls-1" x="414.02" y="360.3" width="3.14" height="9.13" transform="translate(665.84 -128.31) rotate(75.62)"/><rect class="cls-1" x="409.51" y="364.7" width="3.14" height="9.13" transform="translate(666.74 -120.61) rotate(75.63)"/><rect class="cls-1" x="405" y="369.1" width="3.14" height="9.13" transform="translate(667.61 -112.94) rotate(75.63)"/><rect class="cls-1" x="400.49" y="373.5" width="3.14" height="9.13" transform="translate(668.46 -105.27) rotate(75.62)"/><polygon class="cls-1" points="252.2 278.54 224.67 296.29 211.27 294.12 244 278.29 252.2 278.54"/><path class="cls-2" d="M224.72,90.69l-83,48.7c-21-6.46-47.85-4.46-65.55,5.92-21.53,12.63-21.38,32.86.32,45.19a66.13,66.13,0,0,0,16.33,6.4,87,87,0,0,0,13,2.24c17.26,1.68,35.69-1.4,49-9.19,16.09-9.44,20.07-23.12,12-34.58l11.45-6.72-.32-7.27,12.05-.08-.3-6.81,12.05-.08-.3-6.81,12.05-.08-.3-6.81,12.05-.08-.3-6.81,12.87-.09,3.93-2.3L246,93.53Zm-116.8,93.18c-5.6,3.29-14.73,3.35-20.38.14s-5.69-8.48-.08-11.76,14.73-3.35,20.38-.14S113.52,180.57,107.92,183.86Z"/><path class="cls-2" d="M270.12,398.73,158.19,334.37c-7.54-4.35-6.59-12,2.11-17l108.64-62.72c8.7-5,21.87-5.57,29.4-1.22l111.94,64.36c7.54,4.35,6.59,12-2.11,17L299.53,397.51C290.82,402.53,277.66,403.08,270.12,398.73Z"/><path class="cls-1" d="M401.35,252.81,382,241.64l71.35-41.2c3.37-1.95,3.37-5.11,0-7.06L380.46,151.3a13.53,13.53,0,0,0-12.22,0l-71.35,41.2-19.35-11.17,71.35-41.2c14-8.11,36.89-8.11,50.93,0l72.89,42.08c14,8.11,14,21.3,0,29.4Z"/><path class="cls-3" d="M432.58,257.73c0-10.35-6.29-22.36-14-26.84L289.25,156.25c-3.47-2-6.65-2.15-9.1-.78h0l-154.35,89.7L275.06,357.64l152.07-88.26a7,7,0,0,0,1.34-.78h0C431,266.67,432.58,262.9,432.58,257.73Z"/><path class="cls-4" d="M275.06,357.64l152.07-88.26a7,7,0,0,0,1.34-.78h0c2.54-1.92,4.11-5.7,4.11-10.87a34.46,34.46,0,0,0-3.79-15L255.45,342.86Z"/><path class="cls-1" d="M265.34,357.24,136.06,282.6c-7.76-4.48-14-16.5-14-26.84h0c0-10.35,6.29-15.1,14-10.62l129.28,74.64c7.76,4.48,14,16.5,14,26.84h0C279.39,357,273.1,361.72,265.34,357.24Z"/><path class="cls-5" d="M246,332.06l-15.54-9a6.71,6.71,0,0,1-2.8-5.35h0c0-2.06,1.25-3,2.8-2.12l15.54,9a6.71,6.71,0,0,1,2.8,5.35h0C248.77,332,247.52,333,246,332.06Z"/><polygon class="cls-6" points="129.27 69.23 155.83 84.32 182.93 68.42 182.86 61.5 182.63 61.64 182.6 61.15 194.66 61.07 194.59 54.26 206.41 54.17 206.34 47.36 218.16 47.28 218.08 40.47 229.9 40.39 229.83 33.58 242.47 33.49 246.4 31.18 250.73 13.3 250.66 6.39 248.56 13.02 229.44 10.46 129.27 69.23"/><polygon class="cls-3" points="155.76 77.4 182.86 61.5 182.53 54.23 194.59 54.15 194.28 47.34 206.33 47.26 206.03 40.45 218.08 40.36 217.78 33.55 229.83 33.47 229.53 26.66 242.4 26.57 246.32 24.27 250.66 6.39 229.37 3.54 129.19 62.32 155.76 77.4"/><path class="cls-6" d="M173.8,66.82A37.33,37.33,0,0,0,161.49,56.2a63.51,63.51,0,0,0-12.72-5.37L129.2,62.32,155.76,77.4Z"/><polygon class="cls-1" points="249.93 9.39 250.66 6.39 247.08 5.91 162.45 55.57 166.91 58.1 249.93 9.39"/><polygon class="cls-7" points="65.07 91.05 64.78 81.22 67.92 87.86 65.07 91.05"/><path class="cls-6" d="M81.43,113.18c21.7,12.33,56.74,12.08,78.27-.55,10.79-6.33,16.14-14.57,16-22.77h0l-.3-10.42-1.77,2c-2.5-5.14-7.25-10-14.3-14-21.7-12.33-56.74-12.08-78.27.55S59.73,100.85,81.43,113.18Zm31.35-18.39c5.65,3.21,5.69,8.48.08,11.76s-14.73,3.35-20.38.14-5.69-8.48-.08-11.76S107.13,91.57,112.78,94.78Z"/><path class="cls-8" d="M81.14,103.35c21.7,12.33,56.74,12.08,78.27-.55s21.38-32.86-.32-45.19-56.74-12.08-78.27.55S59.44,91,81.14,103.35ZM112.49,85c5.65,3.21,5.69,8.48.08,11.76s-14.73,3.35-20.38.14-5.69-8.48-.08-11.76S106.84,81.75,112.49,85Z"/><path class="cls-1" d="M106.3,108.73c-4.77.75-10.06.09-13.81-2-4.05-2.3-5.2-5.66-3.47-8.59l-9.83-7.79L69,78.76C61,90.33,65.21,104,81.43,113.18c7.16,4.06,15.17,6.37,24.27,7.71Z"/><path class="cls-3" d="M81.14,103.35a66.08,66.08,0,0,0,16.33,6.4,87.07,87.07,0,0,0,13,2.24c17.26,1.68,35.69-1.4,49-9.19,21.53-12.63,21.38-32.86-.32-45.19s-56.74-12.08-78.27.55S59.44,91,81.14,103.35ZM112.49,85c5.65,3.21,5.69,8.48.08,11.76s-14.73,3.35-20.38.14-5.69-8.48-.08-11.76S106.84,81.75,112.49,85Z"/><path class="cls-6" d="M70.89,81c1.06-6.3,5.73-12.45,14-17.33,19.15-11.24,50.33-11.45,69.64-.49C164.16,68.59,169,75.78,169.11,83c1.38-8.21-3.4-16.67-14.32-22.87-19.31-11-50.48-10.75-69.64.49C75.52,66.27,70.78,73.64,70.89,81Z"/><path class="cls-6" d="M57.83,170.4A21.72,21.72,0,0,1,47,167.6c-7.78-4.41-12.1-13.28-12.18-25-.15-21.32,14.69-47.45,33.08-58.25C78,78.46,87.78,77.64,95.56,82.06a21.75,21.75,0,0,1,8.05,8.05c2.7,4.6,4.09,10.29,4.13,16.92.15,21.32-14.69,47.45-33.09,58.25C68.85,168.68,63.13,170.4,57.83,170.4ZM84.68,87.09c-3.91,0-8.28,1.36-12.85,4-16.25,9.53-29.36,32.61-29.22,51.44.06,8.78,3,15.25,8.22,18.22S63.13,163,70.7,158.53c16.25-9.53,29.36-32.61,29.22-51.44a26.25,26.25,0,0,0-3.06-13h0a13.59,13.59,0,0,0-12.18-7Z"/><path class="cls-3" d="M94.9,104.4l15.45,3.79,2.22-11.46c-5.6,3.29-14.73,3.35-20.38.14Z"/><path class="cls-3" d="M81.14,103.35a66.08,66.08,0,0,0,16.33,6.4,87.07,87.07,0,0,0,13,2.24c17.26,1.68,35.69-1.4,49-9.19l-62.92-1.41Z"/><path class="cls-6" d="M104.39,111.29a91.29,91.29,0,0,1-13.66-3.52v9.65a74.83,74.83,0,0,0,13.5,3.46C118.63,122.79,104.39,111.29,104.39,111.29Z"/><path class="cls-1" d="M94.35,108.93a64,64,0,0,1-8.9-3.28c-8.42-3.94,2.23,10.66,2.23,10.66s2.87,1.14,6.67,2.31Z"/><path class="cls-4" d="M218.91,368.18s-7.93-4-12.8,2-11.83,20-12,29.51,7.52,8.86,12.11,6.61,18-21.72,18.84-25.54-1-9-2.25-10S218.91,368.18,218.91,368.18Z"/><path class="cls-1" d="M220.64,366.27l.37,8.22a4.66,4.66,0,0,1-2.32,4.27,9.14,9.14,0,0,1-6.12,1c-6-1-6.51-2.67-6.93-10.88S220.64,366.27,220.64,366.27Z"/><path class="cls-4" d="M189.89,352.38s-7.93-4-12.8,2-11.83,20-12,29.51,7.52,8.86,12.11,6.61,18-21.72,18.84-25.54-1-9-2.25-10S189.89,352.38,189.89,352.38Z"/><path class="cls-1" d="M191.62,350.47l.37,8.22a4.66,4.66,0,0,1-2.32,4.27,9.14,9.14,0,0,1-6.12,1c-6-1-6.51-2.67-6.93-10.88S191.62,350.47,191.62,350.47Z"/><path class="cls-3" d="M262.37,199.64C260,161.46,221,205.26,221,205.26l-26.7,26.17-24,26.41a23.7,23.7,0,0,0-6,19L174,350.93a7.28,7.28,0,0,0,7.3,6.33,24.75,24.75,0,0,0,3.6-.32c8.68-1.35,8-9.6,8-9.6l-1.78-69.26,50.49-30.44S264.72,237.83,262.37,199.64Z"/><path class="cls-1" d="M210.48,265l-7.18-2.64c-.17,0-12.21,11.65-12.11,15.73l5.41,1.73,13.57-13.17Z"/><path class="cls-1" d="M252.2,278.54s30-17.13,33.6-24.31c1.41-2.81,3.59-5.75-5.16-10l-40,28.52,1.73,9.82Z"/><path class="cls-3" d="M291.4,214.38C288.9,176.2,250,220,250,220l-26.7,26.17-24,26.41a23.7,23.7,0,0,0-6,19l9.73,74.05a7.28,7.28,0,0,0,7.3,6.33,24.74,24.74,0,0,0,3.6-.32c8.68-1.35,8-9.6,8-9.6l-1.78-69.26,50.49-30.44S293.69,249.28,291.4,214.38Z"/><path class="cls-1" d="M268.32,91.61c29.57,12.26,29,29.74,29,29.74s-5.79,64.09-3.82,106.89c.83,17.89-95.07,19.26-80.77-28.48C229.58,143.49,223.26,97.92,231.16,91S260.67,88.44,268.32,91.61Z"/><ellipse class="cls-9" cx="263.07" cy="103.31" rx="11.23" ry="15.25" transform="translate(97.4 332.29) rotate(-75.56)"/><path class="cls-5" d="M265.26,116.24a21.46,21.46,0,0,1-5.34-.69,19.68,19.68,0,0,1-10.37-6.35c-2.55-3.13-3.48-6.7-2.62-10,1.74-6.75,10.39-10.38,19.29-8.09a19.67,19.67,0,0,1,10.37,6.35c2.55,3.13,3.48,6.7,2.62,10C277.82,112.84,272,116.24,265.26,116.24Zm-4.45-23c-5.49,0-10.08,2.56-11.14,6.66a8.56,8.56,0,0,0,2.07,7.56,16.85,16.85,0,0,0,8.88,5.4c7.39,1.9,14.5-.81,15.85-6.05a8.56,8.56,0,0,0-2.07-7.56,16.84,16.84,0,0,0-8.88-5.4A19,19,0,0,0,260.81,93.2Z"/><path class="cls-9" d="M256.46,90.28s.26,1.19-.26,10.56c-.16,2.95,10.15,5.7,12.82,3s1.6-5.44,2.24-15.47S256.46,90.28,256.46,90.28Z"/><path class="cls-10" d="M271.27,88.4s-2.54,9.3-15.06,12.86l.19-8.45Z"/><circle class="cls-9" cx="257.16" cy="70.48" r="22.76" transform="matrix(0.97, -0.25, 0.25, 0.97, -9.46, 66.62)"/><path class="cls-10" d="M262.39,71.32s-12.53,5.37-21.21,5.43-6.77-7.21-6.77-7.21l25.76-3.72Z"/><path class="cls-11" d="M238.59,72.73s10.92-4.63,20.5-2.7a10,10,0,0,1,5.79,3.44,3.42,3.42,0,0,0,1.75,1.27c1.7.38,4.48-6.66,7.78-6.82s5.5,2.18,2.8,6.51-1.79,9.18-.55,9.88,14.46-9.42,2.8-32.51-41.25-10.65-45.86-6c0,0-4.85,4.23-8.79.46C224.81,46.29,220.39,79.41,238.59,72.73Z"/><path class="cls-9" d="M280.71,168.18V185.5a7.06,7.06,0,0,1-2.3,5.21l-35.58,32.43,4,6.18,47-34.07a9.55,9.55,0,0,0,3.89-6.73l3.18-30.2Z"/><path class="cls-1" d="M294.8,112.7s10.79,16.23,14.81,59c0,0-18.44,6-28.9,2.58S294.8,112.7,294.8,112.7Z"/><path class="cls-6" d="M278.74,133.22s-4.23,22.61-4.47,33.24a6.78,6.78,0,0,0,4.47,6.55h0Z"/><path class="cls-4" d="M269.51,245.66l-7.86-1-50.76-29.3a7.06,7.06,0,0,0-6.35.26l-36,20.76-4.75-.63v4.73h0a1.85,1.85,0,0,0,1.09,1.67l57.52,33.21a7.06,7.06,0,0,0,6.35-.26L268,252.46a2.56,2.56,0,0,0,1.55-2.13h0Z"/><path class="cls-6" d="M231.38,227.15l-3.61-2.08H188.12l-19.54,11.28-4.75-.63v4.73h0a1.85,1.85,0,0,0,1.09,1.67l57.52,33.21a6,6,0,0,0,3.28.61Z"/><path class="cls-1" d="M165.93,236l-2.11-.28v4.73h0a1.85,1.85,0,0,0,1.09,1.67l1,.59Z"/><path class="cls-12" d="M223,275.59a7.37,7.37,0,0,0,5.39-.33v-8.05H223Z"/><path class="cls-5" d="M222.44,270.59l-57.52-33.21c-1.63-.94-1.42-2.58.46-3.67l39.17-22.61a7.06,7.06,0,0,1,6.35-.26l57.52,33.21c1.63.94,1.42,2.58-.46,3.67l-39.17,22.61A7.06,7.06,0,0,1,222.44,270.59Z"/><path class="cls-3" d="M221.47,265.56l-47.83-27.61c-1.35-.78-1.18-2.15.38-3l21-11.8a5.87,5.87,0,0,1,5.28-.22l47.83,27.61c1.35.78,1.18,2.15-.38,3l-21,11.8A5.87,5.87,0,0,1,221.47,265.56Z"/><path class="cls-9" d="M206.77,210l-.6,4a29.35,29.35,0,0,0,.26,10.18l.71,3.5a4.92,4.92,0,0,0,3.94,3.86h0a2.71,2.71,0,0,0,3.18-2.37l.95-8.48s2.17,2.84,3.22,2.84-1.17-8.5-3.54-13.31S206.77,210,206.77,210Z"/><path class="cls-9" d="M226.27,146.94l-6.17,12.22a24,24,0,0,0-2.53,9.27l-2.68,41.78-8.12-.19-3.69-46.92a17.18,17.18,0,0,1,.21-4.34L207.5,135Z"/><path class="cls-4" d="M220.49,273.78l-4.82-6.3L165,238.12a7.06,7.06,0,0,1-2.94-5.63l0-41.53-2.92-3.81,2.74-1.59h0a1.85,1.85,0,0,1,2,.11L221.35,219a7.06,7.06,0,0,1,2.94,5.63l0,45.22a2.56,2.56,0,0,1-1.08,2.41h0Z"/><path class="cls-6" d="M185.42,250l-3.6-2.09L162,213.53l0-22.56-2.92-3.81,2.74-1.59h0a1.85,1.85,0,0,1,2,.11L221.35,219a6,6,0,0,1,2.17,2.53Z"/><path class="cls-1" d="M160.43,188.85l-1.29-1.69,2.74-1.59h0a1.85,1.85,0,0,1,2,.11l1,.59Z"/><path class="cls-12" d="M221.87,219.34a7.37,7.37,0,0,1,2.4,4.84l-5.62,3.24L216,222.75Z"/><path class="cls-1" d="M218.61,220.55l-57.48-33.28c-1.63-.94-2.95.05-2.95,2.22l0,45.22a7.06,7.06,0,0,0,2.94,5.63l57.48,33.28c1.63.94,2.95-.05,2.95-2.22l0-45.22A7.06,7.06,0,0,0,218.61,220.55Z"/><path class="cls-9" d="M246.88,229.33l-.92,1.91a12.78,12.78,0,0,1-4.8,5.33l-5.71,3.52a5.68,5.68,0,0,1-5.83.13l-.19-.12a3.43,3.43,0,0,1-.49-5.28l6-6.13s-3.35,2.57-4.29,1.53c-.69-.76,3.25-4.46,6.28-4.58s6-2.5,6-2.5Z"/><path class="cls-1" d="M231.75,91s-21.87,23.8-30.7,45.63c0,0,7.48,13.48,25.79,18.76S231.75,91,231.75,91Z"/><path class="cls-6" d="M222.72,153.94l3.55-34.25-8.35,32.09A47.92,47.92,0,0,0,222.72,153.94Z"/><path class="cls-5" d="M248.13,86.16l-5.88-1.61s2.81,4.41,6.9,5.54,4.73-2.34,4.73-2.34Z"/><path class="cls-3" d="M136.58,33.54A16.46,16.46,0,1,1,153,17.08,16.48,16.48,0,0,1,136.58,33.54Zm0-29.33a12.87,12.87,0,1,0,12.87,12.87A12.88,12.88,0,0,0,136.58,4.21Z"/><path class="cls-1" d="M469.4,152.18a11.67,11.67,0,1,1,11.67-11.67A11.69,11.69,0,0,1,469.4,152.18Zm0-19.76a8.08,8.08,0,1,0,8.08,8.08A8.09,8.09,0,0,0,469.4,132.42Z"/><path class="cls-1" d="M86.63,363.09,78.7,347,94.82,339l7.92,16.12Zm-3.12-14.48,4.75,9.67,9.67-4.75-4.75-9.67Z"/><path class="cls-1" d="M320.54,113.29l-7.92-16.12,16.12-7.92,7.92,16.12Zm-3.12-14.48,4.75,9.67,9.67-4.75-4.75-9.67Z"/><rect class="cls-1" x="58.97" y="266.2" width="8.26" height="8.26" transform="translate(-112.79 55.57) rotate(-26.18)"/><path class="cls-13" d="M355.37,25.84,311.33.41a2.25,2.25,0,0,0-2.28-.18v0l-4.27,2.47,3,1.1V35.83c0,2.61,1.59,5.64,3.54,6.77l42.09,24.3v3.76l4.32-2.49h0a3.14,3.14,0,0,0,1.2-2.82V32.61C358.91,30,357.32,27,355.37,25.84Z"/><path class="cls-11" d="M351,70.54,307,45.11c-2-1.13-3.54-4.16-3.54-6.77V5.6C303.44,3,305,1.79,307,2.92l44,25.42c2,1.13,3.54,4.16,3.54,6.77V67.86C354.56,70.47,353,71.67,351,70.54Z"/><path class="cls-5" d="M321.79,33.83c0,1.89-1.33,2.66-3,1.72a6.57,6.57,0,0,1-3-5.15c0-1.89,1.33-2.66,3-1.72A6.57,6.57,0,0,1,321.79,33.83Z"/><path class="cls-5" d="M330.79,39c0,1.89-1.33,2.66-3,1.72a6.57,6.57,0,0,1-3-5.15c0-1.89,1.33-2.66,3-1.72A6.57,6.57,0,0,1,330.79,39Z"/><path class="cls-5" d="M339.79,44.22c0,1.89-1.33,2.66-3,1.72a6.57,6.57,0,0,1-3-5.15c0-1.89,1.33-2.66,3-1.72A6.57,6.57,0,0,1,339.79,44.22Z"/><path class="cls-1" d="M50.95,304.42,7.74,279.48a2.21,2.21,0,0,0-2.23-.18v0L1.32,281.7l2.94,1.08v31.46a8.32,8.32,0,0,0,3.48,6.64L49,344.71v3.69L53.27,346h0a3.08,3.08,0,0,0,1.17-2.77V311.07A8.32,8.32,0,0,0,50.95,304.42Z"/><path class="cls-3" d="M46.68,348.28,3.48,323.33A8.32,8.32,0,0,1,0,316.69V284.57c0-2.56,1.56-3.74,3.48-2.63l43.2,24.94a8.32,8.32,0,0,1,3.48,6.64v32.12C50.15,348.21,48.6,349.38,46.68,348.28Z"/><path class="cls-5" d="M18,312.26c0,1.86-1.31,2.61-2.91,1.68a6.44,6.44,0,0,1-2.91-5c0-1.86,1.31-2.61,2.91-1.68A6.44,6.44,0,0,1,18,312.26Z"/><path class="cls-5" d="M26.83,317.36c0,1.86-1.31,2.61-2.91,1.68A6.44,6.44,0,0,1,21,314c0-1.86,1.31-2.61,2.91-1.68A6.44,6.44,0,0,1,26.83,317.36Z"/><path class="cls-5" d="M35.67,322.46c0,1.86-1.31,2.61-2.91,1.68a6.44,6.44,0,0,1-2.91-5c0-1.86,1.31-2.61,2.91-1.68A6.44,6.44,0,0,1,35.67,322.46Z"/></g></g></g></svg>