<svg xmlns="http://www.w3.org/2000/svg" xmlns:xlink="http://www.w3.org/1999/xlink" viewBox="0 0 482.91 357.35"><defs><style>.cls-1,.cls-10,.cls-6{opacity:0.1;}.cls-2,.cls-6{fill:#6c63ff;}.cls-3,.cls-4{fill:none;stroke:#535461;stroke-miterlimit:10;}.cls-4{stroke-width:2px;}.cls-5{opacity:0.25;}.cls-10,.cls-12,.cls-13,.cls-5,.cls-6,.cls-9{isolation:isolate;}.cls-7{fill:url(#linear-gradient);}.cls-8{fill:#fdc2cc;}.cls-9{opacity:0.03;}.cls-11{fill:#ff5063;}.cls-12{fill:#f9324f;}.cls-13{fill:#fff;opacity:0.15;}.cls-14{fill:#865a61;}</style><linearGradient id="linear-gradient" x1="289.89" y1="2232.1" x2="289.89" y2="2578.95" gradientTransform="matrix(1, 0, 0, -1, -51.45, 2589.45)" gradientUnits="userSpaceOnUse"><stop offset="0" stop-color="gray" stop-opacity="0.25"/><stop offset="0.54" stop-color="gray" stop-opacity="0.12"/><stop offset="1" stop-color="gray" stop-opacity="0.1"/></linearGradient></defs><title>Asset 1</title><g id="Layer_2" data-name="Layer 2"><g id="Layer_1-2" data-name="Layer 1"><g id="_06-28" data-name="06-28"><g class="cls-1"><path class="cls-2" d="M386.67,253.17s-34.47-4.48-8.76,51.32c0,0,23.43-10,24.36-32.69a18,18,0,0,0-15.11-18.56Z"/><path class="cls-3" d="M387.18,253.09s7.8,31.11-9.24,51.41"/><path class="cls-4" d="M377.47,307.37s12.41-30.59,35.59-41.94a50,50,0,0,0,22.72-22.05,84.13,84.13,0,0,0,5.69-14.29"/><path class="cls-2" d="M456,221.85c-2.42,3-14.92,7.48-14.92,7.48s1.51-13.21,3.92-16.22a7,7,0,1,1,11,8.75Z"/><path class="cls-2" d="M451.74,245.91c-3.68,1.24-16.59-1.84-16.59-1.84s8.43-10.25,12.11-11.48a7,7,0,1,1,4.48,13.32Z"/><path class="cls-2" d="M428.48,274.35c-3.8-.79-13.39-10-13.39-10s12.45-4.59,16.25-3.8a7,7,0,0,1-2.86,13.76Z"/><path class="cls-2" d="M406,291.9c-3.88-.14-14.88-7.55-14.88-7.55s11.5-6.64,15.38-6.5a7,7,0,0,1-.49,14Z"/><path class="cls-2" d="M423.14,235.45c.5,3.85,8.9,14.12,8.9,14.12s5.53-12.06,5-15.91a7,7,0,1,0-13.94,1.8Z"/><path class="cls-2" d="M397.15,256.34c1.62,3.52,12.72,10.81,12.72,10.81s1.67-13.17,0-16.69a7,7,0,1,0-12.76,5.89Z"/><path class="cls-2" d="M374.66,280.08c1,3.75,10.71,12.8,10.71,12.8s3.87-12.69,2.87-16.44a7,7,0,1,0-13.57,3.64Z"/><path class="cls-5" d="M456,221.85c-2.42,3-14.92,7.48-14.92,7.48s1.51-13.21,3.92-16.22a7,7,0,1,1,11,8.75Z"/><path class="cls-5" d="M451.74,245.91c-3.68,1.24-16.59-1.84-16.59-1.84s8.43-10.25,12.11-11.48a7,7,0,1,1,4.48,13.32Z"/><path class="cls-5" d="M428.48,274.35c-3.8-.79-13.39-10-13.39-10s12.45-4.59,16.25-3.8a7,7,0,0,1-2.86,13.76Z"/><path class="cls-5" d="M406,291.9c-3.88-.14-14.88-7.55-14.88-7.55s11.5-6.64,15.38-6.5a7,7,0,0,1-.49,14Z"/><path class="cls-5" d="M423.14,235.45c.5,3.85,8.9,14.12,8.9,14.12s5.53-12.06,5-15.91a7,7,0,1,0-13.94,1.8Z"/><path class="cls-5" d="M397.15,256.34c1.62,3.52,12.72,10.81,12.72,10.81s1.67-13.17,0-16.69a7,7,0,1,0-12.76,5.89Z"/><path class="cls-5" d="M374.66,280.08c1,3.75,10.71,12.8,10.71,12.8s3.87-12.69,2.87-16.44a7,7,0,1,0-13.57,3.64Z"/><path class="cls-4" d="M394,321.29s12.41-30.59,35.59-41.94a50,50,0,0,0,22.7-22.06A84.13,84.13,0,0,0,458,243"/><path class="cls-2" d="M472.55,235.76c-2.42,3-14.92,7.48-14.92,7.48S459.13,230,461.55,227a7,7,0,0,1,11,8.75Z"/><path class="cls-2" d="M468.26,259.82c-3.68,1.24-16.59-1.84-16.59-1.84s8.43-10.25,12.11-11.48a7,7,0,0,1,4.48,13.32Z"/><path class="cls-2" d="M445,288.28c-3.8-.79-13.39-10-13.39-10s12.45-4.59,16.25-3.8A7,7,0,0,1,445,288.27Z"/><path class="cls-2" d="M422.54,305.81c-3.88-.14-14.88-7.55-14.88-7.55s11.5-6.63,15.38-6.49a7,7,0,0,1-.49,14Z"/><path class="cls-2" d="M439.66,249.38c.5,3.85,8.9,14.12,8.9,14.12s5.53-12.06,5-15.91a7,7,0,1,0-13.94,1.8Z"/><path class="cls-2" d="M413.66,270.23c1.62,3.52,12.72,10.81,12.72,10.81s1.67-13.17,0-16.69a7,7,0,0,0-12.76,5.89Z"/><path class="cls-2" d="M391.18,294c1,3.75,10.71,12.8,10.71,12.8s3.87-12.69,2.87-16.44A7,7,0,0,0,391.18,294Z"/></g><path class="cls-6" d="M5.22,189.27C12.86,221.93,29,250.16,54.6,263.85c53.13,28.44,172.95,13.77,262.37-3.08a204.77,204.77,0,0,0,116.44-66.55Z"/><path class="cls-6" d="M474.15,35.53H425.09a4.24,4.24,0,1,1,0-8.48h8.48a4.24,4.24,0,1,1,0-8.48h-6.06a4.24,4.24,0,1,1,0-8.48h25.61a67.76,67.76,0,0,0-20-5.51c-69.83-9-94.76-3-103.55,3.08A97.79,97.79,0,0,1,293.7,23.39C250.61,32.27,170,43,97,20,60.72,8.52,33.74,27.85,17.57,60.14h465.1a75.78,75.78,0,0,0-5.76-25.64A4.22,4.22,0,0,1,474.15,35.53Z"/><path class="cls-6" d="M1.05,121.1a216.15,216.15,0,0,0,1.91,57l430.78,15.75a202.48,202.48,0,0,0,29.93-45.65Zm170.38,40.65H163a4.24,4.24,0,0,1,0,8.48H113.89a4.24,4.24,0,1,1,0-8.48h8.48a4.24,4.24,0,1,1,0-8.48h-6.06a4.24,4.24,0,1,1,0-8.48h49.07a4.24,4.24,0,0,1,0,8.48h6.06a4.24,4.24,0,0,1,0,8.48Z"/><path class="cls-6" d="M482.69,60.44,12.38,71.88A187.91,187.91,0,0,0,1.13,120.44H474.45a200.92,200.92,0,0,0,6.84-31A146.68,146.68,0,0,0,482.69,60.44ZM96.61,97.92H88.12a4.24,4.24,0,0,1,0,8.48H39.06a4.24,4.24,0,1,1,0-8.48h8.48a4.24,4.24,0,0,1,0-8.48H41.48a4.24,4.24,0,0,1,0-8.48H90.55a4.24,4.24,0,1,1,0,8.48h6.06a4.24,4.24,0,1,1,0,8.48Z"/><path class="cls-7" d="M413.18,357.12s-19.61-107.58-57-125c-31.69-14.8-66-24.78-75.71-27.49a42.08,42.08,0,0,0-5-6.55c-13.32-13.9-21.32-13.65-22.62-13.47a67.71,67.71,0,0,1-1.32-8.36c0-.44-.08-.85-.11-1.29l.11-.06q-.12-1.25-.21-2.57a66.29,66.29,0,0,0,14.87-10.83c.06.19.11.38.17.57q14.4-12.17,28.2-25c2.64-2.47,5.41-5.15,6.31-8.63a12.67,12.67,0,0,0,.33-3.66c.12-2.64-.51-5.34-.61-8a9.18,9.18,0,0,1,.11-1.27c.62-4.38,3.66-8,6.16-11.65a54.94,54.94,0,0,0,9.34-31.45A53.26,53.26,0,0,0,314,56.5C312,50,308,43.12,301.21,41.69c-2.61-.55-5.33-.21-8-.38-11-.7-19.31-9.68-28.12-16.26A74.22,74.22,0,0,0,228.3,10.77a29.48,29.48,0,0,0-12.41.85C207,14.58,201.6,23.71,193,27.47c-6.33,2.79-13.65,2.34-20.25,4.43C163,35,154.63,45.1,154.41,55.46V56.8c-.11,5.23,1.76,10.56,1.91,15.92q0,.73,0,1.46a47.91,47.91,0,0,1-2.85,17c-1.14,2.93-2.6,6.32-2.36,9.24a6.19,6.19,0,0,0,1.46,4.84l2.13-1.88a64.29,64.29,0,0,0,22.12,61.11q.12,2,.24,4.23c.33,6.52.6,14.71.52,23.62l-20.76,19.08-53.37,24.21S54.67,246,65.18,314.55l5,42.57h44.56l-.1.22h66.14l0-.22H338.18l0,.22h6.16v-.22Zm-160-171.46a45.74,45.74,0,0,1,3.17,8.72,35.7,35.7,0,0,1-3.42-9.19l.07.12Zm-75.63,8.8q0,1.26,0,2.54l-.11.15a21.57,21.57,0,0,1,.15-2.71Z"/><path class="cls-8" d="M270.62,205.26l-8.8,84.07-47.1,15s-61.18-11.44-45.34-44.46c11.27-23.48,11-65.45,9.84-87.72-.44-9-1-14.84-1-14.84s80.11-70,73.51-7c-1.28,12.19-1.35,21.72-.64,29.17C254,210.41,270.62,205.26,270.62,205.26Z"/><path class="cls-9" d="M270.62,205.26l-8.8,84.07-47.1,15s-61.18-11.44-45.34-44.46c11.27-23.48,11-65.45,9.84-87.72-.44-9-1-14.84-1-14.84s80.11-70,73.51-7c-1.28,12.19-1.35,21.72-.64,29.17C254,210.41,270.62,205.26,270.62,205.26Z"/><path class="cls-10" d="M251.69,148.92c-1.28,12.19-1.35,21.72-.64,29.17a63.86,63.86,0,0,1-71.83-7.28c-.44-9-1-14.84-1-14.84S258.29,86,251.69,148.92Z"/><circle class="cls-8" cx="220.44" cy="119.43" r="63.82"/><circle class="cls-9" cx="220.44" cy="119.43" r="63.82"/><path class="cls-11" d="M407.07,357.12h-331L71.22,315.3c-10.12-67.35,37-77.47,37-77.47l51.5-23.77,20.47-19.15c-6.6,25.09,43.36,77.25,43.36,77.25h0a11.83,11.83,0,0,0,.91-.95c1.35-1.47,4.56-5.15,12.1-14.28,2.69-3.27,5.95-7.24,9.86-12.05,18.84-23.15,9.17-50.51,6.29-56.17l-.18-.35-.26-.48h0l-.07-.12,0-.09,24.21,18.93s.93.25,2.64.73c9.42,2.64,42.51,12.46,73.07,27C388.14,251.48,407.07,357.12,407.07,357.12Z"/><path class="cls-11" d="M294.39,256.32c-4-4-30.81-8.8-30.81-8.8.88,10.56-31.69,26.85-31.69,26.85l2.42,82.75H218.69L216,282.73l7.48-10.56h0l.91-.95a145.26,145.26,0,0,0,12.1-14.28c2.69-3.27,5.95-7.24,9.86-12.05,18.84-23.15,9.17-50.51,6.29-56.17l-.18-.35c-.11-.21-.19-.37-.26-.48h0l-.07-.12,0-.09h0s7.92-1.76,22,13.21a41.27,41.27,0,0,1,4.84,6.45C290.43,225.71,297.88,259.81,294.39,256.32Z"/><path class="cls-12" d="M294.39,256.32c-4-4-30.81-8.8-30.81-8.8.88,10.56-31.69,26.85-31.69,26.85l2.42,82.75H218.69L216,282.73l7.48-10.56h0l.91-.95a145.26,145.26,0,0,0,12.1-14.28c2.69-3.27,5.95-7.24,9.86-12.05,18.84-23.15,9.17-50.51,6.29-56.17l-.18-.35c-.11-.21-.19-.37-.26-.48h0l-.07-.12,0-.09h0s7.92-1.76,22,13.21a41.27,41.27,0,0,1,4.84,6.45C290.43,225.71,297.88,259.81,294.39,256.32Z"/><path class="cls-10" d="M115.24,290.21s20.69,42.26,21.79,67.13"/><polygon class="cls-10" points="340.61 314.43 334.66 357.34 340.61 357.34 340.61 314.43"/><path class="cls-10" d="M119.86,357.34l32.79-74.61s9.24-17.61,11.44-35.21,14.09-45.34,14.09-45.34,29.49-37.41,43.14-32.13-11.88,25.09-11.88,25.09,37.41,14.53,11.88,57.66-26,35.21-26,35.21l-12.54,69.33Z"/><path class="cls-8" d="M119,357.34l32.79-74.61s9.24-17.61,11.44-35.21c1.4-11.19,6.71-26.48,10.4-36.13a55.4,55.4,0,0,1,10.44-17.17c9.53-10.67,26.85-27.88,36.38-24.18,13.65,5.28-11.88,25.09-11.88,25.09s37.41,14.53,11.88,57.66-26,35.21-26,35.21l-12.54,69.33Z"/><circle class="cls-13" cx="240.03" cy="83.56" r="1.32"/><circle class="cls-13" cx="233.86" cy="86.2" r="1.32"/><path class="cls-10" d="M175.1,39c6.37-2.06,13.44-1.62,19.55-4.35,8.26-3.71,13.47-12.68,22-15.58,3.82-1.29,8-1.25,12-.83a70.9,70.9,0,0,1,35.5,14c8.5,6.47,16.48,15.28,27.13,16,2.57.17,5.19-.17,7.72.37,6.53,1.4,10.45,8.13,12.32,14.53a54.7,54.7,0,0,1-6.89,45.16c-2.41,3.61-5.35,7.14-5.95,11.44s1.21,8.59.17,12.72c-.88,3.42-3.52,6.05-6.09,8.48q-13.32,12.59-27.22,24.54c-4.82-15.3,2.25-31.78,1.15-47.78-.44-6.23-2.64-13-8.14-16-5.15-2.75-11.72-1.32-16.93-4-5.81-2.93-8.2-9.86-12.59-14.66-7.48-8.19-20.47-9.24-30.94-5.55s-19,11.3-27.29,18.72l-15,13.49c-2.94-3.31-.71-8.39.88-12.53,2.37-6.2,2.89-12.89,2.73-19.47-.13-5.28-1.95-10.5-1.84-15.64C157.57,52,165.61,42.07,175.1,39Z"/><path class="cls-14" d="M175.1,37.68c6.37-2.06,13.44-1.62,19.55-4.35,8.26-3.71,13.47-12.68,22-15.58,3.82-1.29,8-1.25,12-.83a70.9,70.9,0,0,1,35.5,14c8.5,6.47,16.48,15.28,27.13,16,2.57.17,5.19-.17,7.72.37,6.53,1.4,10.45,8.13,12.32,14.53A54.7,54.7,0,0,1,304.45,107c-2.41,3.61-5.35,7.14-5.95,11.44s1.21,8.59.17,12.72c-.88,3.42-3.52,6.05-6.09,8.48q-13.32,12.59-27.22,24.54c-4.82-15.3,2.25-31.78,1.15-47.78-.44-6.23-2.64-13-8.14-16-5.15-2.75-11.72-1.32-16.93-4-5.81-2.93-8.2-9.86-12.59-14.66-7.48-8.19-20.47-9.24-30.94-5.55s-19,11.3-27.29,18.72l-15,13.49c-2.94-3.31-.71-8.39.88-12.53,2.37-6.2,2.89-12.89,2.73-19.47-.13-5.28-1.95-10.5-1.84-15.64C157.57,50.66,165.61,40.75,175.1,37.68Z"/></g></g></g></svg>