<svg xmlns="http://www.w3.org/2000/svg" viewBox="0 0 235.8 413.01"><defs><style>.cls-1{fill:#3b308a;}.cls-2{fill:#f6c5b0;}.cls-3{fill:#242449;}.cls-4{fill:#ff5063;}.cls-5{fill:#ffe7de;}.cls-6{fill:#27348c;}.cls-7{fill:#dedae8;}.cls-8{fill:#fff;}.cls-9{fill:#5f6565;opacity:0.04;}.cls-10{fill:#424dbf;}.cls-11{fill:#f17187;}.cls-12{fill:#06529c;}</style></defs><title>Asset 1</title><g id="Layer_2" data-name="Layer 2"><g id="Layer_1-2" data-name="Layer 1"><g id="_06-28" data-name="06-28"><path class="cls-1" d="M94.8,125a44.78,44.78,0,0,0,9.43,7.2,76.16,76.16,0,0,1-7-19.61,2,2,0,0,0-.7-1.38,1.88,1.88,0,0,0-1.45,0C86.52,113.34,89.92,120.09,94.8,125Z"/><path class="cls-2" d="M119.58,133.58a12.91,12.91,0,0,0,1.34-1.84c5.18-8.64,4.95-41.06-18.22-36.79-21,3.87-7.47,28.7,1.38,37.47a15.38,15.38,0,0,0,6.29,4.06c.67.19.47,6.71,1.06,7.69a4.86,4.86,0,0,0,6,1.63,8.09,8.09,0,0,0,3.81-5C121.52,139.47,119.1,134.14,119.58,133.58Z"/><path class="cls-1" d="M119.84,124.22c2.11,1.13,4.6-.7,6-2.62a23.32,23.32,0,0,0-.26-27.49c-5.06-6.5-16.88-7.38-14.26,2.49.93,3.5,5.06,6.94,6.37,10.68C119.6,112.64,119.65,118.62,119.84,124.22Z"/><path class="cls-1" d="M79.75,95.37c-6.4,9.79-4.62,22.95-9.61,33.52a34.69,34.69,0,0,0,24.17-12c5.87-6.92,22.58-18.06,14.81-27.16C101.22,80.44,85.36,86.79,79.75,95.37Z"/><path class="cls-3" d="M124.85,399l-1.71,2.1-.74,2.25,5.13,7.77,4.85,1.86,5.44-.47s2.33-.85.93-2.72-5.13-2.8-5.13-2.8l.54-6.27Z"/><polygon class="cls-3" points="104.58 399.26 103.88 403.15 100.08 409.75 101.79 411.85 108.16 411.3 112.04 405.79 112.04 394.91 104.74 395.61 104.58 399.26"/><polygon class="cls-3" points="96.04 246.96 92.24 267.77 102.96 400.76 114.17 398.41 132.78 251.41 96.04 246.96"/><polygon class="cls-3" points="154.7 244.23 156.86 329.95 135.09 403.94 122.4 399.22 133.09 333.23 123.28 243.5 154.7 244.23"/><path class="cls-4" d="M89.57,158c-2,4.42-2.41,9.31-3.08,14.64a250.25,250.25,0,0,0-1.87,27.8c-.15,10.79.3,21.57,1.16,32.32q.64,8.06,1.55,16.1c.31,2.78-.91,9.9,2.09,11.36,1.67.81,3.69.63,5.58.44l50-5.24c2.67-.28,5.43-.59,7.74-1.87,4.14-2.29,3.42-6.8,4.07-10.6a80.11,80.11,0,0,0,1-15.22c-.21-10.44-1.81-20.78-2.57-31.19-.81-11.19-2.6-26.19-6.84-36.83A35.18,35.18,0,0,0,140,147.64c-4.59-4.28-8.81-5.36-15-6.48a1.6,1.6,0,0,1-.73-.26,1.39,1.39,0,0,1-.39-.69l-1.18-3.61a1.85,1.85,0,0,0-.78-1.18,2.16,2.16,0,0,0-1.44,0l-12.41,2.82a7.59,7.59,0,0,1,.31,2.88,2.82,2.82,0,0,1-1.72,2.28c-4.23,1.5-8.65,4.84-12.07,7.87A20.14,20.14,0,0,0,89.57,158Z"/><path class="cls-5" d="M208.58,127.8a56.47,56.47,0,0,0,4.22-5.15,3.81,3.81,0,0,0,1-3.33l-.16-2.85a6,6,0,0,0-.27-1.75c-.53-1.43-2-2.24-3.39-2.91a1.91,1.91,0,0,0-.89-.27,1.3,1.3,0,0,0-1.1,1c-.48,1.58-.33,2.17-1.47,3.65a18.35,18.35,0,0,1-3.25,3.49,4,4,0,0,1-.3-2.08c0-.63-.09-1.36-.64-1.67-.73-.41-1.59.3-2,1-.76,1.49-.75,3.24-1.1,4.87-.52,2.43-3,6.07-1.18,8.07,1.11,1.22,2.95,2.13,4.29,3.1l4.33-3.49A21,21,0,0,0,208.58,127.8Z"/><path class="cls-4" d="M132,164.53q-2.72-2.75-5.33-5.61c-3.85-4.2-9.07-10-6.63-15.86,2.74-6.59,9.76-6.11,15-3.47,5.92,3,20.69,19.36,26.61,22.36,0,0,21.91-22.28,35.21-35.66,1.92,1.48,6,3,6.81,5.49,1.88,5.79-10.89,21.75-14,26.33a136,136,0,0,1-25.72,28.56,5.29,5.29,0,0,1-2.73,1.46,5.35,5.35,0,0,1-3.46-1.41A208.58,208.58,0,0,1,132,164.53Z"/><g id="_Group_" data-name="&lt;Group&gt;"><g id="_Group_2" data-name="&lt;Group&gt;"><path id="_Path_" data-name="&lt;Path&gt;" class="cls-6" d="M128.46,378.88l-123.64-.1A4.81,4.81,0,0,1,0,374l.16-201A4.81,4.81,0,0,1,5,168.17l123.64.1a4.81,4.81,0,0,1,4.82,4.79l-.16,201A4.81,4.81,0,0,1,128.46,378.88Z"/><rect id="_Path_2" data-name="&lt;Path&gt;" class="cls-7" x="6.96" y="179.39" width="119.25" height="179.87"/><rect id="_Path_3" data-name="&lt;Path&gt;" class="cls-8" x="59.51" y="367.7" width="14.28" height="3.27"/></g><polygon id="_Path_4" data-name="&lt;Path&gt;" class="cls-9" points="7.01 204.31 6.89 359.21 126.14 359.3 7.01 204.31"/></g><rect class="cls-10" x="158.29" y="4.61" width="68.48" height="118.72" rx="1.12" ry="1.12" transform="translate(-7.84 32.15) rotate(-9.35)"/><rect class="cls-8" x="162.54" y="10.85" width="58.32" height="96.19" transform="translate(-7.03 31.94) rotate(-9.35)"/><rect class="cls-8" x="193.33" y="112.81" width="15.33" height="5.03" rx="1.1" ry="1.1" transform="translate(-16.07 34.2) rotate(-9.35)"/><rect class="cls-8" x="17.15" y="235.55" width="93.76" height="22.17"/><rect class="cls-8" x="18.95" y="280.93" width="93.76" height="22.17"/><path class="cls-11" d="M28.9,296.22l-1.58-1.16,2.05-2.52-3.17-.87.62-1.87,3,1.16-.16-3.26h2l-.16,3.24,3.06-1.14.6,1.87-3.15.85,2.05,2.54-1.61,1.16-1.79-2.72Z"/><path class="cls-11" d="M41.51,296.22l-1.58-1.16L42,292.54l-3.17-.87.62-1.87,3,1.16-.16-3.26h2l-.16,3.24,3.06-1.14.6,1.87-3.15.85,2.05,2.54-1.61,1.16-1.79-2.72Z"/><path class="cls-11" d="M54.12,296.22l-1.58-1.16,2.05-2.52-3.17-.87.62-1.87,3,1.16-.16-3.26h2l-.16,3.24,3.06-1.14.6,1.87-3.15.85,2.05,2.54-1.61,1.16L55.9,293.5Z"/><path class="cls-11" d="M66.73,296.22l-1.58-1.16,2.05-2.52L64,291.67l.62-1.87,3,1.16-.16-3.26h2l-.16,3.24,3.06-1.14.6,1.87-3.15.85,2.05,2.54-1.61,1.16-1.79-2.72Z"/><rect class="cls-8" x="18.95" y="235.93" width="93.76" height="22.17"/><path class="cls-11" d="M28.9,251.22l-1.58-1.16,2.05-2.52-3.17-.87.62-1.87,3,1.16-.16-3.26h2l-.16,3.24,3.06-1.14.6,1.87-3.15.85,2.05,2.54-1.61,1.16-1.79-2.72Z"/><path class="cls-11" d="M41.51,251.22l-1.58-1.16L42,247.54l-3.17-.87.62-1.87,3,1.16-.16-3.26h2l-.16,3.24,3.06-1.14.6,1.87-3.15.85,2.05,2.54-1.61,1.16-1.79-2.72Z"/><path class="cls-11" d="M54.12,251.22l-1.58-1.16,2.05-2.52-3.17-.87.62-1.87,3,1.16-.16-3.26h2l-.16,3.24,3.06-1.14.6,1.87-3.15.85,2.05,2.54-1.61,1.16L55.9,248.5Z"/><path class="cls-11" d="M66.73,251.22l-1.58-1.16,2.05-2.52L64,246.67l.62-1.87,3,1.16-.16-3.26h2l-.16,3.24,3.06-1.14.6,1.87-3.15.85,2.05,2.54-1.61,1.16-1.79-2.72Z"/><path class="cls-12" d="M183.64,51.63l2.68,5.25c.42.83,1.67.1,1.25-.73l-2.68-5.25c-.42-.83-1.67-.1-1.25.73Z"/><path class="cls-12" d="M194.24,50.75a17,17,0,0,0-1,5.1c0,.93,1.4.93,1.44,0a15.73,15.73,0,0,1,1-4.72c.32-.87-1.07-1.25-1.39-.38Z"/><path class="cls-12" d="M178.5,62.57l3.93,1a.72.72,0,0,0,.38-1.39l-3.93-1a.72.72,0,0,0-.38,1.39Z"/><path class="cls-12" d="M183.15,73.55l2.86-3c.64-.68-.38-1.7-1-1l-2.86,3c-.64.68.38,1.7,1,1Z"/><path class="cls-12" d="M191.17,73.3l1.57,3.89c.34.85,1.74.48,1.39-.38l-1.57-3.89c-.34-.85-1.74-.48-1.39.38Z"/><path class="cls-12" d="M198.18,68.86l3.45.94a.72.72,0,0,0,.38-1.39l-3.45-.94a.72.72,0,0,0-.38,1.39Z"/><path class="cls-12" d="M199.19,59.83l4.45-1.9c.85-.36.12-1.61-.73-1.25l-4.45,1.9c-.85.36-.12,1.61.73,1.25Z"/></g></g></g></svg>