<svg xmlns="http://www.w3.org/2000/svg" viewBox="0 0 153.38 50.67">
    <defs>
        <style>
        @font-face {
        font-family: 'OpenSans-Extrabold';
        src: url('font/OpenSans-ExtraBold.ttf') format('truetype');
        }
        .cls-1 {
        font-size: 13px;
        font-family: 'OpenSans-Extrabold' , 'Open Sans', sans-serif;
        font-weight: 700;
        }
        .cls-1,.cls-2 { 
        fill:#ec4036;
        }
        .cls-3 {
        fill:#a4a4a4;
        }
        </style>
    </defs>
    <title>Asset 3</title>
    <g id="Layer_2" data-name="Layer 2">
        <g id="Layer_1-2" data-name="Layer 1">
            <g id="Header">
                <text class="cls-1" transform="translate(67.34 19.6)">KRA<tspan x="0" y="24">MANAGER</tspan>
                </text>
                <path class="cls-2" d="M43.25,7.42a25.33,25.33,0,1,0,7.42,17.91A25.27,25.27,0,0,0,43.25,7.42ZM41.83,41.83a23.33,23.33,0,1,1,6.83-16.49A23.26,23.26,0,0,1,41.83,41.83Z"/>
                <polygon class="cls-2" points="14.22 12.45 11.95 16.61 19.82 16.61 11.26 32.42 32.86 32.42 35.19 28.72 17.68 28.7 26.69 12.45 14.22 12.45"/>
                <polygon class="cls-3" points="27.32 12.45 25.24 16.27 27.01 16.27 27.07 28.08 31.41 28.08 31.41 16.33 36.96 16.27 39.41 12.45 27.32 12.45"/>
                <polygon class="cls-3" points="27.01 33.05 31.41 33.05 31.41 38.22 27.01 34.38 27.01 33.05"/>
            </g>
        </g>
    </g>
</svg>